<svg width="40" height="40" viewBox="0 0 40 40" fill="none" xmlns="http://www.w3.org/2000/svg">
<path d="M8.69458 23.0971C8.08347 23.4212 7.43986 23.4976 6.76375 23.3262C6.08792 23.1551 5.58333 22.7686 5.25 22.1667C4.85194 21.4353 4.7825 20.676 5.04166 19.8887C5.30083 19.1018 5.82861 18.574 6.625 18.3054L20.6946 13.5833L21.9721 16.0971L8.69458 23.0971ZM10.2779 35V24.7917L24.9304 17.0696L24.1946 15.6112L33.4721 11L34.7221 13.5279L23.0554 22.2779V35H10.2779ZM12.5 16.1112C10.9631 16.1112 9.65292 15.5696 8.56958 14.4862C7.48625 13.4029 6.94458 12.0926 6.94458 10.5554C6.94458 9.01847 7.48625 7.70833 8.56958 6.625C9.65292 5.54167 10.9631 5 12.5 5C14.0369 5 15.3471 5.54167 16.4304 6.625C17.5137 7.70833 18.0554 9.01847 18.0554 10.5554C18.0554 12.0926 17.5137 13.4029 16.4304 14.4862C15.3471 15.5696 14.0369 16.1112 12.5 16.1112Z" fill="url(#paint0_linear_45_287)"/>
<defs>
<linearGradient id="paint0_linear_45_287" x1="10.8551" y1="9" x2="24.8979" y2="34.9348" gradientUnits="userSpaceOnUse">
<stop stop-color="#FFDB8D"/>
<stop offset="1" stop-color="#FFB770"/>
</linearGradient>
</defs>
</svg>
